<svg xmlns="http://www.w3.org/2000/svg" viewBox="0 0 763.24 303.76"><defs><style>.cls-1{fill:#adc3db;}.cls-2{fill:#208ccc;}.cls-3{isolation:isolate;}.cls-4{fill:#fff;}</style></defs><g id="Layer_2" data-name="Layer 2"><g id="Layer_1-2" data-name="Layer 1"><polygon class="cls-1" points="533.09 193.16 593.64 193.16 573.36 247.71 512.81 247.71 533.09 193.16"/><polygon class="cls-1" points="665.45 0 638.02 73.77 612.05 143.63 551.49 143.63 604.89 0 665.45 0"/><polygon class="cls-2" points="589.13 0 535.74 143.63 517.34 193.16 497.06 247.71 436.5 247.71 528.57 0 589.13 0"/><path class="cls-2" d="M50.59,0a26.09,26.09,0,0,0-18,7.14A23.72,23.72,0,0,0,25.1,24.31c0,13.38,11.49,24.32,25.5,24.32H170.16c12.38,0,22.52,9.65,22.52,21.47a20.92,20.92,0,0,1-6.62,15.17,23,23,0,0,1-15.9,6.3H44.86a33.18,33.18,0,0,0-22.94,9.1,30.29,30.29,0,0,0-9.52,21.87c0,17,14.6,31,32.46,31H216.28c12,0,21.75,9.34,21.75,20.76v1.89c0,11.42-9.79,20.76-21.75,20.76H179.77c-.83,0-1.66,0-2.49-.13H26.69C12,196.81,0,208.26,0,222.25H0c0,14,12,25.44,26.69,25.44H399l20.28-54.55,18.41-49.52L491.12,0ZM423.26,72.34l-42.7,40.74-36.08,34.41a18,18,0,0,1-13.18,4.94h-.65a18.18,18.18,0,0,1-12.56-5l-42.52-40.56c-12.1-11.55-2.57-32.56,14-30.06a18,18,0,0,1,9.75,4.71l31.77,30.34a.37.37,0,0,0,.45,0l27.35-26.1,39.21-37.4a18.44,18.44,0,0,1,25.16,0A16.48,16.48,0,0,1,424,71.67q-.33.36-.69.69Z"/><polygon class="cls-2" points="763.24 247.7 700.26 247.7 604.5 0 667.48 0 763.24 247.7"/><polygon class="cls-2" points="535.74 143.63 517.34 193.16 512.81 193.16 512.81 143.63 535.74 143.63"/><polygon class="cls-2" points="638.46 184.34 505.78 184.34 505.78 152.45 625.72 152.45 638.46 184.34"/><g class="cls-3"><path class="cls-4" d="M62.33,303.36H47.09l-3.63-5.85H18.75l-3.57,5.85H.12L23,269.63H39.17ZM38.64,289.72l-7.5-12.16H30.9l-7.38,12.16Z"/><path class="cls-4" d="M67.63,303.36V269.63h36a44.75,44.75,0,0,1,7.44.52,14,14,0,0,1,4.88,1.63,6.64,6.64,0,0,1,2.65,2.83,9.66,9.66,0,0,1,.8,4.09,7.34,7.34,0,0,1-1.19,4.44,8.23,8.23,0,0,1-3.45,2.61v.1a8.89,8.89,0,0,1,4.43,2.6,7.85,7.85,0,0,1,1.58,5.29,10.07,10.07,0,0,1-.89,4.44,7.19,7.19,0,0,1-2.83,3,14.31,14.31,0,0,1-4.94,1.69,42.89,42.89,0,0,1-7.23.52Zm34.88-20.69A3.77,3.77,0,0,0,105,282a3.26,3.26,0,0,0,0-4.27,4,4,0,0,0-2.41-.59H81.74v5.5Zm.3,12.95a5.07,5.07,0,0,0,3.22-.74,2.87,2.87,0,0,0,.83-2.24,2.71,2.71,0,0,0-.86-2.2,5.17,5.17,0,0,0-3.19-.72H81.74v5.9Z"/><path class="cls-4" d="M155.79,303.76c-4,0-7.55-.08-10.5-.23a50.05,50.05,0,0,1-7.53-.86,16.43,16.43,0,0,1-5.06-1.82,8.16,8.16,0,0,1-3-3.05,13,13,0,0,1-1.46-4.56,44.77,44.77,0,0,1-.39-6.35v-.79a44.68,44.68,0,0,1,.39-6.35,12.77,12.77,0,0,1,1.46-4.54,8.46,8.46,0,0,1,3-3,15.92,15.92,0,0,1,5.06-1.84,49.92,49.92,0,0,1,7.53-.87c3-.15,6.46-.22,10.5-.22h1.85q6.08,0,10.51.22a50.24,50.24,0,0,1,7.53.87,15.63,15.63,0,0,1,5,1.84,8.61,8.61,0,0,1,3,3,12.57,12.57,0,0,1,1.45,4.54,44.68,44.68,0,0,1,.39,6.35v.79a44.77,44.77,0,0,1-.39,6.35,12.75,12.75,0,0,1-1.45,4.56,8.3,8.3,0,0,1-3,3.05,16.13,16.13,0,0,1-5,1.82,50.37,50.37,0,0,1-7.53.86q-4.44.23-10.51.23Zm1.49-9q5,0,7.71-.23a9.45,9.45,0,0,0,4.14-1.06,3.61,3.61,0,0,0,1.7-2.46,24.21,24.21,0,0,0,.32-4.44v-.39a24.35,24.35,0,0,0-.32-4.42,3.57,3.57,0,0,0-1.7-2.46,9.91,9.91,0,0,0-4.14-1q-2.76-.22-7.71-.22h-1.07q-4.94,0-7.74.22a10,10,0,0,0-4.16,1,3.45,3.45,0,0,0-1.67,2.46,25.62,25.62,0,0,0-.3,4.42v.39a25.48,25.48,0,0,0,.3,4.44,3.49,3.49,0,0,0,1.67,2.46,9.51,9.51,0,0,0,4.16,1.06q2.81.22,7.74.23Z"/><path class="cls-4" d="M278,303.36H262.77l-3.63-5.85h-24.7l-3.58,5.85H215.8l22.92-33.73h16.13Zm-23.69-13.64-7.5-12.16h-.24l-7.38,12.16Z"/><path class="cls-4" d="M340,286.94a49.72,49.72,0,0,1-.32,6.13,12.24,12.24,0,0,1-1.34,4.41,8,8,0,0,1-2.89,2.95,16.09,16.09,0,0,1-4.91,1.81,45.83,45.83,0,0,1-7.5.9q-4.47.23-10.6.22H283.31V269.63h29.11q6,0,10.42.19a50.26,50.26,0,0,1,7.44.82,16.2,16.2,0,0,1,4.94,1.74,8.19,8.19,0,0,1,3,2.95,12,12,0,0,1,1.43,4.44A46.48,46.48,0,0,1,340,286Zm-28.63,7.54q5.06,0,7.95-.25a10.82,10.82,0,0,0,4.31-1.06,3.57,3.57,0,0,0,1.79-2.36,18.84,18.84,0,0,0,.36-4.12v-.59a18.2,18.2,0,0,0-.36-4.05,3.54,3.54,0,0,0-1.79-2.33,10.8,10.8,0,0,0-4.31-1.07q-2.9-.24-7.95-.24H297.6v16.07Z"/><path class="cls-4" d="M405.29,303.36H390.05l-3.63-5.85H361.71l-3.57,5.85H343.08L366,269.63h16.13ZM381.6,289.72l-7.5-12.16h-.24l-7.38,12.16Z"/><path class="cls-4" d="M478.64,303.36H464.88V280.64h-.17l-14.77,22.72H439.11l-14.47-22.72h-.3v22.72H410.59V269.63h19.59l14.58,22.67h.18l14.47-22.67h19.23Z"/><path class="cls-4" d="M541.68,303.76c-3.93,0-7.35-.09-10.27-.25a51.3,51.3,0,0,1-7.44-.89,16.15,16.15,0,0,1-5-1.84,8.79,8.79,0,0,1-3.07-3,12.78,12.78,0,0,1-1.52-4.54,43.08,43.08,0,0,1-.41-6.35v-.74a31.81,31.81,0,0,1,1-8.79,8.6,8.6,0,0,1,3.93-5.1,20.68,20.68,0,0,1,8.42-2.39,141.39,141.39,0,0,1,14.41-.59h1.9q7.92,0,12.8.47a23.16,23.16,0,0,1,7.56,1.74,6.76,6.76,0,0,1,3.6,3.49,15,15,0,0,1,.93,5.71v2.08H554.24v-1.19a4.07,4.07,0,0,0-.3-1.66,2.27,2.27,0,0,0-1.43-1.07,14.37,14.37,0,0,0-3.33-.57q-2.2-.17-6-.17H542.1q-5,0-7.65.22a9.2,9.2,0,0,0-4.05,1.07,3.41,3.41,0,0,0-1.61,2.45,28,28,0,0,0-.27,4.4v.39a27.45,27.45,0,0,0,.27,4.34,3.49,3.49,0,0,0,1.61,2.48,9.14,9.14,0,0,0,4.05,1.12q2.7.25,7.65.25h1.07c2.73,0,4.88,0,6.43-.15a12.12,12.12,0,0,0,3.45-.6,2.17,2.17,0,0,0,1.4-1.24,6.42,6.42,0,0,0,.26-2v-1h14.11v2.43a14.47,14.47,0,0,1-.92,5.55,7.07,7.07,0,0,1-3.63,3.58,24.07,24.07,0,0,1-7.65,1.91,118.72,118.72,0,0,1-13,.57Z"/><path class="cls-4" d="M634.13,303.36H618.89l-3.63-5.85H590.55L587,303.36H571.92l22.92-33.73H611Zm-23.69-13.64-7.5-12.16h-.24l-7.38,12.16Z"/><path class="cls-4" d="M690.63,303.36H676.52v-3.13a11.77,11.77,0,0,0-.36-3.24,3,3,0,0,0-1.61-1.86,9.86,9.86,0,0,0-3.63-.85q-2.38-.19-6.43-.2H653.6v9.28H639.43V269.63h33.1a66.71,66.71,0,0,1,9,.49,14.91,14.91,0,0,1,5.54,1.71,6.43,6.43,0,0,1,2.79,3.2,13.69,13.69,0,0,1,.78,5v1.19a9.41,9.41,0,0,1-1.46,5.56,8.67,8.67,0,0,1-4.79,3v.15a15.26,15.26,0,0,1,3.06.86,4.85,4.85,0,0,1,1.94,1.42,5.2,5.2,0,0,1,1,2.26,17.87,17.87,0,0,1,.27,3.39Zm-23-17.26c1.94,0,3.49-.05,4.64-.13a7.62,7.62,0,0,0,2.62-.54,2.07,2.07,0,0,0,1.16-1.17,6.14,6.14,0,0,0,.27-2v-.6a5.9,5.9,0,0,0-.27-2,2.07,2.07,0,0,0-1.16-1.17,7.83,7.83,0,0,0-2.62-.55c-1.15-.08-2.7-.12-4.64-.12h-14v8.29Z"/><path class="cls-4" d="M757.06,286.94a49.72,49.72,0,0,1-.32,6.13,12.24,12.24,0,0,1-1.34,4.41,8,8,0,0,1-2.89,2.95,16.09,16.09,0,0,1-4.91,1.81,46,46,0,0,1-7.5.9q-4.47.23-10.6.22H700.39V269.63H729.5q6,0,10.42.19a50.26,50.26,0,0,1,7.44.82,16.3,16.3,0,0,1,4.94,1.74,8.19,8.19,0,0,1,3,2.95,12,12,0,0,1,1.43,4.44,46.48,46.48,0,0,1,.35,6.23Zm-28.63,7.54q5.05,0,8-.25a10.82,10.82,0,0,0,4.31-1.06,3.57,3.57,0,0,0,1.79-2.36,18.84,18.84,0,0,0,.36-4.12v-.59a18.2,18.2,0,0,0-.36-4.05,3.54,3.54,0,0,0-1.79-2.33,10.8,10.8,0,0,0-4.31-1.07q-2.89-.24-8-.24H714.68v16.07Z"/></g></g></g></svg>