<svg xmlns="http://www.w3.org/2000/svg" viewBox="0 0 763.23 247.71"><defs><style>.cls-1{fill:#adc3db;}</style></defs><g id="Layer_2" data-name="Layer 2"><g id="Layer_1-2" data-name="Layer 1"><polygon class="cls-1" points="533.08 193.16 593.64 193.16 573.36 247.71 512.8 247.71 533.08 193.16"/><polygon class="cls-1" points="665.45 0 638.02 73.77 612.05 143.63 551.49 143.63 604.89 0 665.45 0"/><polygon class="cls-1" points="589.13 0 535.74 143.63 517.33 193.16 497.06 247.71 436.5 247.71 528.57 0 589.13 0"/><path class="cls-1" d="M50.58,0a26.06,26.06,0,0,0-18,7.14,23.69,23.69,0,0,0-7.49,17.17c0,13.38,11.49,24.32,25.49,24.32H170.15c12.39,0,22.52,9.65,22.52,21.47a20.86,20.86,0,0,1-6.62,15.17,22.92,22.92,0,0,1-15.9,6.3H44.86a33.09,33.09,0,0,0-22.94,9.1,30.29,30.29,0,0,0-9.52,21.87c0,17,14.6,31,32.46,31H216.27c12,0,21.76,9.34,21.76,20.76v1.89c0,11.42-9.79,20.76-21.76,20.76H179.76c-.83,0-1.66-.05-2.49-.13H26.69C12,196.81,0,208.26,0,222.25v0c0,14,12,25.44,26.69,25.44H399l20.28-54.55,18.41-49.52L491.11,0ZM423.25,72.34l-42.7,40.74-36.08,34.41a18,18,0,0,1-13.17,4.94c-.23,0-.43,0-.65,0a18.15,18.15,0,0,1-12.56-5l-42.52-40.56c-12.1-11.55-2.57-32.56,14-30.06a18,18,0,0,1,9.76,4.71l31.77,30.34a.36.36,0,0,0,.44,0l27.35-26.1L398.1,48.36a18.43,18.43,0,0,1,25.15,0,16.47,16.47,0,0,1,0,24Z"/><polygon class="cls-1" points="763.23 247.7 700.26 247.7 604.5 0 667.48 0 763.23 247.7"/><polygon class="cls-1" points="535.74 143.63 517.33 193.16 512.8 193.16 512.8 143.63 535.74 143.63"/><polygon class="cls-1" points="638.46 184.34 505.78 184.34 505.78 152.45 625.72 152.45 638.46 184.34"/></g></g></svg>