<svg xmlns="http://www.w3.org/2000/svg" viewBox="0 0 763.24 317.74"><defs><style>.cls-1{fill:#adc3db;}.cls-2{fill:#208ccc;}.cls-3{font-size:49.61px;fill:#fff;font-family:EurostileUnicaseLTW04-Rg;}</style></defs><g id="Layer_2" data-name="Layer 2"><g id="Layer_1-2" data-name="Layer 1"><polygon class="cls-1" points="533.09 193.16 593.64 193.16 573.36 247.71 512.81 247.71 533.09 193.16"/><polygon class="cls-1" points="665.45 0 638.02 73.77 612.05 143.63 551.49 143.63 604.89 0 665.45 0"/><polygon class="cls-2" points="589.13 0 535.74 143.63 517.34 193.16 497.06 247.71 436.5 247.71 528.57 0 589.13 0"/><path class="cls-2" d="M50.59,0a26.09,26.09,0,0,0-18,7.14,23.73,23.73,0,0,0-7.49,17.17c0,13.38,11.49,24.32,25.5,24.32H170.16c12.38,0,22.52,9.65,22.52,21.47a20.9,20.9,0,0,1-6.62,15.17,23,23,0,0,1-15.9,6.3H44.86a33.13,33.13,0,0,0-22.94,9.1,30.29,30.29,0,0,0-9.52,21.87c0,17,14.6,31,32.46,31H216.28c12,0,21.75,9.34,21.75,20.76v1.89c0,11.42-9.79,20.76-21.75,20.76H179.77c-.83,0-1.66-.05-2.49-.13H26.69C12,196.81,0,208.26,0,222.25v0c0,14,12,25.44,26.69,25.44H399l20.28-54.55,18.41-49.52L491.12,0ZM423.26,72.34l-42.7,40.74-36.08,34.41a18,18,0,0,1-13.18,4.94c-.23,0-.43,0-.65,0a18.17,18.17,0,0,1-12.56-5l-42.52-40.56c-12.1-11.55-2.57-32.56,14-30.06a18,18,0,0,1,9.75,4.71l31.77,30.34a.37.37,0,0,0,.45,0l27.35-26.1L398.1,48.36a18.44,18.44,0,0,1,25.16,0,16.49,16.49,0,0,1,0,24Z"/><polygon class="cls-2" points="763.24 247.7 700.26 247.7 604.5 0 667.48 0 763.24 247.7"/><polygon class="cls-2" points="535.74 143.63 517.34 193.16 512.81 193.16 512.81 143.63 535.74 143.63"/><polygon class="cls-2" points="638.46 184.34 505.78 184.34 505.78 152.45 625.72 152.45 638.46 184.34"/><text class="cls-3" transform="translate(0 303.36) scale(1.2 1)">ABO ADAM CARD</text></g></g></svg>